# xmcd
#
# Track frame offsets:
#	150
#	17629
#	33178
#	51825
#	74248
#	91068
#	108749
#	131333
#	157151
#	180432
#	199814
#	219998
#	241588
#	271895
#
# Disc length: 4470 seconds
#
# Revision: 0
# Processed by: cddbd v1.5.1PL2 Copyright (c) Steve Scherf et al.
# Submitted via: dBpowerAMP V4.0
#
DISCID=be11740e
DTITLE=Usher - Confessions
DYEAR=1900
DGENRE=
TTITLE0=Truth hurts
TTITLE1=If I want to
TTITLE2=You got it bad
TTITLE3=Seduction
TTITLE4=Nice and slow
TTITLE5=U remind me
TTITLE6=Simple things
TTITLE7=Pop ya collar
TTITLE8=U dont have to call
TTITLE9=Burn
TTITLE10=You make me wanna
TTITLE11=U remind me
TTITLE12=Yeah
TTITLE13=DATA
EXTD=Usher - Confessions
EXTT0=
EXTT1=
EXTT2=
EXTT3=
EXTT4=
EXTT5=
EXTT6=
EXTT7=
EXTT8=
EXTT9=
EXTT10=
EXTT11=
EXTT12=
EXTT13=
PLAYORDER=
